#!OML:ASF F:\VICON\USERDATA\INSTALL\rory3\rory3.ASF
:FULLY-SPECIFIED
:DEGREES
120
root -11.229 17.6959 -0.534539 72.5845 94.1989 75.2014
lowerback 14.1176 0.887853 0.560579
upperback 1.37844 1.46055 1.66446
thorax -6.49098 0.754939 1.15562
lowerneck -15.1045 -9.23201 -13.8894
upperneck 30.093 -12.1005 10.3394
head 14.4366 -5.315 4.48101
rclavicle -4.53478e-016 -7.8023e-015
rhumerus -35.5884 -14.479 -76.6684
rradius 36.3339
rwrist 4.28019
rhand -17.9922 8.38126
rfingers 7.12502
rthumb 8.27784 -21.4366
lclavicle -4.53478e-016 -7.8023e-015
lhumerus -35.1967 9.6181 75.0546
lradius 37.1264
lwrist -4.66911
lhand -19.3734 24.2652
lfingers 7.12502
lthumb 6.94468 54.1313
rfemur 0.891787 3.67778 14.518
rtibia 18.6247
rfoot -14.5313 4.36304
rtoes -8.84726
lfemur -9.24304 -13.9316 1.34262
ltibia 34.9676
lfoot -1.8373 7.99297
ltoes -6.81714
121
root -11.2523 17.7087 -0.429061 72.6491 94.4074 75.3794
lowerback 14.3129 0.915913 0.729847
upperback 1.44728 1.53718 1.7498
thorax -6.52567 0.790811 1.13267
lowerneck -15.1251 -9.2686 -13.8701
upperneck 30.0306 -12.1637 10.3662
head 14.4241 -5.33676 4.47319
rclavicle -3.29858e-015 -2.5345e-015
rhumerus -35.5886 -14.3979 -76.5423
rradius 36.6468
rwrist 4.24408
rhand -18.3043 8.07477
rfingers 7.12502
rthumb 7.97661 -21.7547
lclavicle -3.29858e-015 -2.5345e-015
lhumerus -35.1179 9.00336 75.5136
lradius 37.1887
lwrist -5.08664
lhand -19.0096 23.8574
lfingers 7.12502
lthumb 7.29587 53.7116
rfemur 0.770875 3.78274 15.1626
rtibia 19.0199
rfoot -14.7783 4.12446
rtoes -8.91416
lfemur -9.70606 -13.5735 1.16725
ltibia 36.0305
lfoot -2.86148 6.32971
ltoes -10.4385
122
root -11.2753 17.7151 -0.328324 73.325 94.4198 76.1135
lowerback 14.4288 0.981455 0.726739
upperback 1.49471 1.63061 1.79558
thorax -6.54249 0.838143 1.16291
lowerneck -15.0351 -9.25594 -13.902
upperneck 29.9024 -12.1824 10.5033
head 14.3642 -5.33537 4.53059
rclavicle -1.08866e-014 -1.20265e-014
rhumerus -35.6164 -13.9987 -76.4336
rradius 36.9845
rwrist 3.83456
rhand -19.2362 7.74603
rfingers 7.12502
rthumb 7.07712 -22.1157
lclavicle -1.08866e-014 -1.20265e-014
lhumerus -35.0811 8.47937 75.9528
lradius 37.2452
lwrist -5.7043
lhand -18.8132 23.3909
lfingers 7.12502
lthumb 7.48546 53.2385
rfemur 0.545812 3.89002 15.584
rtibia 19.4854
rfoot -15.0644 3.88133
rtoes -9.18418
lfemur -10.1525 -13.2513 0.745286
ltibia 37.0307
lfoot -3.9478 4.68675
ltoes -12.8923
123
root -11.2971 17.7207 -0.23597 73.3452 94.2922 76.0782
lowerback 14.4143 1.06233 0.601682
upperback 1.52187 1.71987 1.82563
thorax -6.51169 0.885814 1.24818
lowerneck -14.991 -9.22864 -13.8273
upperneck 29.7761 -12.168 10.5278
head 14.2912 -5.32041 4.52779
rclavicle 7.11354e-015 -4.91992e-015
rhumerus -35.6313 -13.5849 -76.2376
rradius 37.295
rwrist 3.41052
rhand -19.6597 7.72662
rfingers 7.12502
rthumb 6.66833 -22.1484
lclavicle 7.11354e-015 -4.91992e-015
lhumerus -35.0121 8.03949 76.4772
lradius 37.2827
lwrist -6.23513
lhand -19.0452 23.3688
lfingers 7.12502
lthumb 7.26153 53.2242
rfemur 0.198987 3.9933 15.7959
rtibia 19.9434
rfoot -15.2172 3.70261
rtoes -8.65972
lfemur -10.6406 -13.1706 0.0452545
ltibia 37.9953
lfoot -5.01072 3.25622
ltoes -13.562
124
root -11.3187 17.7263 -0.14232 73.7953 94.2314 76.4728
lowerback 14.414 1.14655 0.493288
upperback 1.54794 1.81794 1.87173
thorax -6.49057 0.937625 1.33906
lowerneck -15.0168 -9.2748 -13.7002
upperneck 29.7203 -12.2229 10.3912
head 14.2584 -5.34697 4.43487
rclavicle 6.39605e-015 6.72141e-015
rhumerus -35.5774 -13.4275 -76.0191
rradius 37.3875
rwrist 3.41134
rhand -19.5906 8.24894
rfingers 7.12502
rthumb 6.73504 -21.6239
lclavicle 6.39605e-015 6.72141e-015
lhumerus -34.9532 7.62054 76.9698
lradius 37.3768
lwrist -6.6374
lhand -18.773 23.0608
lfingers 7.12502
lthumb 7.52424 52.907
rfemur -0.181587 4.27751 16.0996
rtibia 20.4599
rfoot -15.4076 3.5186
rtoes -7.76573
lfemur -11.1317 -12.8807 -0.595131
ltibia 38.8983
lfoot -6.13154 1.58099
ltoes -13.4895
125
root -11.3401 17.7299 -0.0508354 75.184 94.2441 77.8971
lowerback 14.4812 1.2042 0.470056
upperback 1.60245 1.8973 1.92883
thorax -6.47433 0.97878 1.39606
lowerneck -14.9842 -9.29945 -13.8085
upperneck 29.6264 -12.2722 10.5302
head 14.2388 -5.3658 4.4987
rclavicle 1.22687e-015 9.21864e-015
rhumerus -35.4375 -13.1499 -75.9345
rradius 37.4721
rwrist 3.18411
rhand -19.6785 8.20781
rfingers 7.12502
rthumb 6.65015 -21.6678
lclavicle 1.22687e-015 9.21864e-015
lhumerus -34.879 7.40859 77.3578
lradius 37.4158
lwrist -7.19048
lhand -18.4043 22.5541
lfingers 7.12502
lthumb 7.88015 52.3872
rfemur -0.483001 4.448 16.4747
rtibia 20.9937
rfoot -15.686 3.48464
rtoes -7.49258
lfemur -11.5222 -12.433 -1.16261
ltibia 39.7759
lfoot -7.25376 -0.41127
ltoes -13.5751
126
root -11.3581 17.738 0.0331797 76.4291 94.0582 79.1041
lowerback 14.4748 1.31394 0.292766
upperback 1.62952 2.01551 1.94812
thorax -6.45149 1.0415 1.49365
lowerneck -14.883 -9.29838 -13.9138
upperneck 29.47 -12.3056 10.727
head 14.1787 -5.37272 4.58936
rclavicle 3.45388e-015 8.59744e-015
rhumerus -35.3455 -13.0235 -75.7144
rradius 37.5637
rwrist 3.07762
rhand -19.7758 7.83794
rfingers 7.12502
rthumb 6.55622 -22.0406
lclavicle 3.45388e-015 8.59744e-015
lhumerus -34.8351 7.03416 77.8482
lradius 37.4929
lwrist -7.52703
lhand -18.5173 22.5445
lfingers 7.12502
lthumb 7.77109 52.3817
rfemur -0.877917 4.3534 16.5932
rtibia 21.5232
rfoot -15.9821 3.47263
rtoes -8.47648
lfemur -11.9087 -11.9383 -2.08451
ltibia 40.628
lfoot -8.33791 -2.09435
ltoes -16.5383
127
root -11.3727 17.7416 0.116126 78.8234 93.9085 81.4572
lowerback 14.461 1.4644 0.247298
upperback 1.62605 2.20087 1.87748
thorax -6.45121 1.1316 1.40799
lowerneck -14.7808 -9.32121 -13.6961
upperneck 29.3597 -12.4038 10.7234
head 14.1044 -5.39473 4.53122
rclavicle -2.55997e-014 -5.66536e-015
rhumerus -35.3709 -13.1086 -75.5298
rradius 37.5535
rwrist 3.00747
rhand -20.0066 7.52751
rfingers 7.12502
rthumb 6.33341 -22.3578
lclavicle -2.55997e-014 -5.66536e-015
lhumerus -34.8454 6.46521 78.1656
lradius 37.6415
lwrist -7.64084
lhand -18.4576 22.5782
lfingers 7.12502
lthumb 7.82868 52.4133
rfemur -1.27714 4.38676 16.7984
rtibia 22.0551
rfoot -16.321 3.19217
rtoes -10.4858
lfemur -12.2269 -11.3265 -3.01236
ltibia 41.4481
lfoot -9.45349 -3.57237
ltoes -19.4824
128
root -11.3872 17.7403 0.196152 81.4443 93.7816 84.1016
lowerback 14.4947 1.56331 0.226189
upperback 1.65259 2.32137 1.78347
thorax -6.4414 1.18946 1.29591
lowerneck -14.8055 -9.32906 -13.5762
upperneck 29.3971 -12.4688 10.7891
head 14.1322 -5.39827 4.52701
rclavicle 2.86281e-014 -1.00386e-014
rhumerus -35.3328 -13.259 -75.4149
rradius 37.5295
rwrist 2.94403
rhand -20.0675 7.43494
rfingers 7.12502
rthumb 6.27465 -22.4521
lclavicle 2.86281e-014 -1.00386e-014
lhumerus -34.9067 5.95352 78.3841
lradius 37.8501
lwrist -7.41259
lhand -18.9544 22.732
lfingers 7.12502
lthumb 7.3492 52.5843
rfemur -1.59961 4.67705 17.0402
rtibia 22.6046
rfoot -16.579 2.75853
rtoes -11.5599
lfemur -12.4427 -10.8381 -3.93519
ltibia 42.2175
lfoot -10.4315 -5.05011
ltoes -18.7857
129
root -11.4029 17.7398 0.273089 81.9606 93.6171 84.6079
lowerback 14.4753 1.577 0.0563437
upperback 1.69528 2.31098 1.76668
thorax -6.39084 1.18871 1.37721
lowerneck -14.8118 -9.28167 -13.628
upperneck 29.3438 -12.4134 10.8927
head 14.1144 -5.36826 4.58784
rclavicle 2.59352e-015 1.73937e-016
rhumerus -35.1352 -13.5111 -75.1873
rradius 37.366
rwrist 3.20339
rhand -19.9178 7.65443
rfingers 7.12502
rthumb 6.41921 -22.2283
lclavicle 2.59352e-015 1.73937e-016
lhumerus -34.9903 5.96785 78.5876
lradius 38.0438
lwrist -7.3789
lhand -20.2824 23.3446
lfingers 7.12502
lthumb 6.06715 53.2378
rfemur -1.93072 5.07038 17.2044
rtibia 23.1728
rfoot -16.7405 2.35876
rtoes -10.9311
lfemur -12.703 -10.4564 -4.94756
ltibia 42.9352
lfoot -11.3301 -6.25479
ltoes -16.674
130
root -11.4128 17.7415 0.347686 83.4667 93.5076 86.0454
lowerback 14.3539 1.6017 -0.0145235
upperback 1.72815 2.33219 1.78491
thorax -6.29287 1.2012 1.43581
lowerneck -14.8993 -9.24404 -13.7745
upperneck 29.3712 -12.3301 10.9628
head 14.1507 -5.33723 4.65668
rclavicle -1.40081e-014 -1.66979e-014
rhumerus -34.9585 -13.85 -74.906
rradius 37.1973
rwrist 3.69129
rhand -19.8996 7.44063
rfingers 7.12502
rthumb 6.4367 -22.4416
lclavicle -1.40081e-014 -1.66979e-014
lhumerus -35.061 6.28 78.7476
lradius 38.2108
lwrist -7.64208
lhand -20.3812 23.3097
lfingers 7.12502
lthumb 5.97176 53.2055
rfemur -2.31267 5.35535 17.4099
rtibia 23.7055
rfoot -16.8288 2.09677
rtoes -10.2116
lfemur -12.9953 -9.71287 -5.96019
ltibia 43.6261
lfoot -12.309 -6.96532
ltoes -16.5714
131
root -11.422 17.7415 0.418736 84.9871 93.2931 87.5748
lowerback 14.3786 1.69019 -0.0775447
upperback 1.72553 2.43265 1.69993
thorax -6.31088 1.25024 1.3611
lowerneck -14.8908 -9.25509 -13.7625
upperneck 29.387 -12.3398 10.9313
head 14.1538 -5.3433 4.64053
rclavicle 8.21229e-015 -7.10655e-015
rhumerus -34.9679 -14.1461 -74.6858
rradius 37.1191
rwrist 3.79981
rhand -20.0921 7.1406
rfingers 7.12502
rthumb 6.25091 -22.7472
lclavicle 8.21229e-015 -7.10655e-015
lhumerus -35.1689 6.21829 78.9476
lradius 38.3699
lwrist -7.76927
lhand -19.4188 22.837
lfingers 7.12502
lthumb 6.9009 52.7045
rfemur -2.61124 5.40244 17.4548
rtibia 24.2138
rfoot -16.9784 1.99639
rtoes -10.1601
lfemur -13.1632 -8.8986 -7.15649
ltibia 44.2897
lfoot -13.2521 -7.50683
ltoes -16.3692
132
root -11.4333 17.7433 0.486794 85.5224 93.1135 88.1343
lowerback 14.4264 1.751 -0.16911
upperback 1.74118 2.49815 1.68472
thorax -6.3256 1.28437 1.38271
lowerneck -14.8829 -9.25399 -13.6741
upperneck 29.3282 -12.3085 10.7705
head 14.0994 -5.34153 4.56216
rclavicle -3.30852e-014 -1.41137e-014
rhumerus -34.9033 -14.4199 -74.3652
rradius 36.9339
rwrist 3.90331
rhand -20.123 7.25236
rfingers 7.12502
rthumb 6.22105 -22.6363
lclavicle -3.30852e-014 -1.41137e-014
lhumerus -35.2912 5.98747 79.3014
lradius 38.5805
lwrist -7.44575
lhand -19.1188 22.8174
lfingers 7.12502
lthumb 7.19048 52.6753
rfemur -2.88103 5.49083 17.5287
rtibia 24.724
rfoot -17.1132 1.86876
rtoes -9.67696
lfemur -13.3182 -8.07225 -8.27772
ltibia 44.937
lfoot -13.8755 -8.50664
ltoes -13.0174
